HIERARCHY
ROOT ui
{
	 OFFSET 0 0 0
	 CHANNELS 3 XPosition YPosition Z Position
	 EndSite
	 {
	 OFFSET 0 -1 0
	 }
}
ROOT li
{
	 OFFSET 0 0 0
	 CHANNELS 3 XPosition YPosition Z Position
	 EndSite
	 {
	 OFFSET 0 -1 0
	 }
}
ROOT ul
{
	 OFFSET 0 0 0
	 CHANNELS 3 XPosition YPosition Z Position
	 EndSite
	 {
	 OFFSET 0 -1 0
	 }
}
ROOT ll
{
	 OFFSET 0 0 0
	 CHANNELS 3 XPosition YPosition Z Position
	 EndSite
	 {
	 OFFSET 0 -1 0
	 }
}
ROOT tt
{
	 OFFSET 0 0 0
	 CHANNELS 3 XPosition YPosition Z Position
	 EndSite
	 {
	 OFFSET 0 -1 0
	 }
}
ROOT tb
{
	 OFFSET 0 0 0
	 CHANNELS 3 XPosition YPosition Z Position
	 EndSite
	 {
	 OFFSET 0 -1 0
	 }
}
ROOT td
{
	 OFFSET 0 0 0
	 CHANNELS 3 XPosition YPosition Z Position
	 EndSite
	 {
	 OFFSET 0 -1 0
	 }
}
ROOT v
{
	 OFFSET 0 0 0
	 CHANNELS 3 XPosition YPosition Z Position
	 EndSite
	 {
	 OFFSET 0 -1 0
	 }
}
ROOT bn
{
	 OFFSET 0 0 0
	 CHANNELS 3 XPosition YPosition Z Position
	 EndSite
	 {
	 OFFSET 0 -1 0
	 }
}
MOTION
Frames: 10
Frame Time: 0.002
2.6346299052238466E-4	0.0012183539867401123	0		0.4658686828613281	-2.33535595703125	0		-0.98481591796875	-0.0023313319683074952	0		-0.7162805786132812	-2.241010498046875	0		1.6807728271484375	-0.47492572021484375	0		3.236538818359375	-0.08983343505859374	0		4.60667529296875	0.02202714729309082	0		5.585580078125	0.11164002990722656	0		-0.25135025024414065	5.87990283203125	0		
0.023401542663574217	-0.0021706490516662596	0		0.5179692993164062	-2.3440205078125	0		-0.9965515747070313	0.007609697818756103	0		-0.7379757080078125	-2.227972412109375	0		1.6738668212890624	-0.48301837158203126	0		3.233736083984375	-0.08695708465576171	0		4.5978623046875	0.023967987060546876	0		5.58084326171875	0.12154708862304688	0		-0.27025906372070313	5.87491552734375	0		
-0.007390562057495117	0.00197064995765686	0		0.4532629089355469	-2.332550048828125	0		-0.9885180053710938	-0.006629295825958252	0		-0.7377913208007812	-2.228133544921875	0		1.671000244140625	-0.48713290405273435	0		3.207839111328125	-0.09383973693847657	0		4.593107421875	0.031893405914306644	0		5.5810107421875	0.12143214416503906	0		-0.23608750915527343	5.879431640625	0		
0.015750619888305666	-0.0013921899795532227	0		0.4804345397949219	-2.334947265625	0		-1.004288818359375	-6.280879974365234E-4	0		-0.7406288452148437	-2.231254150390625	0		1.6711756591796876	-0.4872605895996094	0		3.224010009765625	-0.09410668182373047	0		4.59413427734375	0.016783233642578124	0		5.57710400390625	0.11337843322753906	0		-0.27001593017578124	5.8746123046875	0		
-0.002083405017852783	-0.002349541902542114	0		0.4625765380859375	-2.340899658203125	0		-0.9841341552734375	-0.0029591629505157473	0		-0.727479736328125	-2.236515380859375	0		1.671355224609375	-0.48737319946289065	0		3.224185791015625	-0.09420345306396484	0		4.59837548828125	0.023661878585815428	0		5.5862578125	0.11121971130371094	0		-0.3039570007324219	5.86880517578125	0		
0.019131629943847657	0.0013333619832992553	0		0.45790432739257814	-2.327963623046875	0		-0.9839563598632812	-0.003086258888244629	0		-0.7731607666015625	-2.224200927734375	0		1.681652587890625	-0.4755672607421875	0		3.234430908203125	-0.08738028717041016	0		4.59768701171875	0.037604835510253905	0		5.5864345703125	0.11116458129882813	0		-0.25074085998535156	5.87917919921875	0		
-0.0026508939266204836	0.005440701961517334	0		0.4830604248046875	-2.33329931640625	0		-0.9937679443359375	-0.0021047210693359375	0		-0.7349778442382813	-2.2266748046875	0		1.67779833984375	-0.47961227416992186	0		3.22947705078125	-0.1013975601196289	0		4.5987314453125	0.02354590606689453	0		5.58170703125	0.12117308807373046	0		-0.23563040161132812	5.8789306640625	0		
-0.0015525519847869873	-0.0026571760177612307	0		0.4812433166503906	-2.335363037109375	0		-0.9995453491210937	0.0028519608974456787	0		-0.7367962036132812	-2.2287529296875	0		1.6610174560546875	-0.47551962280273435	0		3.239718994140625	-0.09454421997070313	0		4.59890576171875	0.023510791778564452	0		5.58188037109375	0.12114942932128907	0		-0.23552420043945313	5.8788388671875	0		
-0.006348152160644532	0.001315134048461914	0		0.4704842529296875	-2.330328369140625	0		-0.996541259765625	-0.014262354850769043	0		-0.7396329956054688	-2.2318076171875	0		1.6720743408203125	-0.48767977905273435	0		3.218953857421875	-0.08738261413574219	0		4.58922412109375	0.03958290100097656	0		5.577130859375	0.130185546875	0		-0.2694715881347656	5.8740849609375	0		
-0.006195120811462403	0.0012531100511550904	0		0.46557705688476564	-2.339337158203125	0		-0.9873218994140625	-0.007420904159545898	0		-0.7265040283203125	-2.2370009765625	0		1.6752705078125	-0.48375244140625	0		3.21910791015625	-0.08740992736816407	0		4.59922412109375	0.023475997924804686	0		5.5871015625	0.11108940887451171	0		-0.2843905944824219	5.8731630859375	0		
